<svg width="50" height="51" viewBox="0 0 50 51" fill="none" xmlns="http://www.w3.org/2000/svg">
<g clip-path="url(#clip0_27_300)">
<path fill-rule="evenodd" clip-rule="evenodd" d="M24.6685 0.5C12.2998 0.5 2.27271 10.5271 2.27271 22.8958C2.27271 35.2646 12.2998 45.2917 24.6685 45.2917C37.0373 45.2917 47.0644 35.2646 47.0644 22.8958C47.0644 10.5271 37.0373 0.5 24.6685 0.5ZM26.231 14.5625C26.231 14.1481 26.0664 13.7507 25.7734 13.4576C25.4804 13.1646 25.0829 13 24.6685 13C24.2541 13 23.8567 13.1646 23.5637 13.4576C23.2707 13.7507 23.106 14.1481 23.106 14.5625V21.3333H16.3352C15.9208 21.3333 15.5234 21.498 15.2304 21.791C14.9373 22.084 14.7727 22.4814 14.7727 22.8958C14.7727 23.3102 14.9373 23.7077 15.2304 24.0007C15.5234 24.2937 15.9208 24.4583 16.3352 24.4583H23.106V31.2292C23.106 31.6436 23.2707 32.041 23.5637 32.334C23.8567 32.627 24.2541 32.7917 24.6685 32.7917C25.0829 32.7917 25.4804 32.627 25.7734 32.334C26.0664 32.041 26.231 31.6436 26.231 31.2292V24.4583H33.0019C33.4163 24.4583 33.8137 24.2937 34.1067 24.0007C34.3998 23.7077 34.5644 23.3102 34.5644 22.8958C34.5644 22.4814 34.3998 22.084 34.1067 21.791C33.8137 21.498 33.4163 21.3333 33.0019 21.3333H26.231V14.5625Z" fill="black"/>
</g>
<defs>
<clipPath id="clip0_27_300">
<rect width="50" height="50" fill="white" transform="translate(0 0.5)"/>
</clipPath>
</defs>
</svg>
