<svg width="30" height="31" viewBox="0 0 30 31" fill="none" xmlns="http://www.w3.org/2000/svg">
<g clip-path="url(#clip0_27_306)">
<path d="M6.25 22.5V21.25C6.25 18.9294 7.17187 16.7038 8.81282 15.0628C10.4538 13.4219 12.6794 12.5 15 12.5M15 12.5C17.3206 12.5 19.5462 13.4219 21.1872 15.0628C22.8281 16.7038 23.75 18.9294 23.75 21.25V22.5M15 12.5C16.3261 12.5 17.5979 11.9732 18.5355 11.0355C19.4732 10.0979 20 8.82608 20 7.5C20 6.17392 19.4732 4.90215 18.5355 3.96447C17.5979 3.02678 16.3261 2.5 15 2.5C13.6739 2.5 12.4021 3.02678 11.4645 3.96447C10.5268 4.90215 10 6.17392 10 7.5C10 8.82608 10.5268 10.0979 11.4645 11.0355C12.4021 11.9732 13.6739 12.5 15 12.5Z" stroke="black" stroke-width="1.5" stroke-linecap="round" stroke-linejoin="round"/>
</g>
<defs>
<clipPath id="clip0_27_306">
<rect width="30" height="30" fill="white" transform="translate(0 0.5)"/>
</clipPath>
</defs>
</svg>
