<svg width="22" height="22" viewBox="0 0 22 22" fill="none" xmlns="http://www.w3.org/2000/svg">
<path d="M16.6757 1H5.32432C2.93606 1 1 3.1069 1 5.70588V16.2941C1 18.8931 2.93606 21 5.32432 21H16.6757C19.064 21 21 18.8931 21 16.2941V5.70588C21 3.1069 19.064 1 16.6757 1Z" stroke="black" stroke-width="1.5"/>
<path d="M8.1626 12.0001C7.56676 12.0001 7.07926 11.5126 7.07926 10.9167C7.07926 10.3209 7.56676 9.83342 8.1626 9.83342C8.75843 9.83342 9.24593 10.3209 9.24593 10.9167C9.24593 11.5126 8.75843 12.0001 8.1626 12.0001ZM11.1959 9.83342C10.7626 8.58758 9.57093 7.66675 8.1626 7.66675C6.3751 7.66675 4.9126 9.12925 4.9126 10.9167C4.9126 12.7042 6.3751 14.1667 8.1626 14.1667C9.57093 14.1667 10.7626 13.2459 11.1959 12.0001H13.0376V14.1667H15.2043V12.0001H16.8293V9.83342H11.1959Z" fill="black"/>
</svg>
