<svg width="30" height="31" viewBox="0 0 30 31" fill="none" xmlns="http://www.w3.org/2000/svg">
<g clip-path="url(#clip0_27_303)">
<path d="M24.375 3H20.625V1.125C20.625 0.95924 20.5592 0.800269 20.4419 0.683058C20.3247 0.565848 20.1658 0.5 20 0.5C19.8342 0.5 19.6753 0.565848 19.5581 0.683058C19.4408 0.800269 19.375 0.95924 19.375 1.125V3H10.625V1.125C10.625 0.95924 10.5592 0.800269 10.4419 0.683058C10.3247 0.565848 10.1658 0.5 10 0.5C9.83424 0.5 9.67527 0.565848 9.55806 0.683058C9.44085 0.800269 9.375 0.95924 9.375 1.125V3H5.625C4.7965 3.00099 4.00222 3.33055 3.41639 3.91639C2.83055 4.50222 2.50099 5.2965 2.5 6.125V22.375C2.50099 23.2035 2.83055 23.9978 3.41639 24.5836C4.00222 25.1694 4.7965 25.499 5.625 25.5H24.375C25.2036 25.4993 25.9981 25.1699 26.584 24.584C27.1699 23.9981 27.4993 23.2036 27.5 22.375V6.125C27.4993 5.2964 27.1699 4.50193 26.584 3.91602C25.9981 3.33011 25.2036 3.00066 24.375 3ZM26.25 22.375C26.25 22.8723 26.0525 23.3492 25.7008 23.7008C25.3492 24.0525 24.8723 24.25 24.375 24.25H5.625C5.12772 24.25 4.65081 24.0525 4.29917 23.7008C3.94754 23.3492 3.75 22.8723 3.75 22.375V11.75H26.25V22.375ZM26.25 10.5H3.75V6.125C3.75 5.09 4.5875 4.25 5.625 4.25H9.375V6.125C9.375 6.29076 9.44085 6.44973 9.55806 6.56694C9.67527 6.68415 9.83424 6.75 10 6.75C10.1658 6.75 10.3247 6.68415 10.4419 6.56694C10.5592 6.44973 10.625 6.29076 10.625 6.125V4.25H19.375V6.125C19.375 6.29076 19.4408 6.44973 19.5581 6.56694C19.6753 6.68415 19.8342 6.75 20 6.75C20.1658 6.75 20.3247 6.68415 20.4419 6.56694C20.5592 6.44973 20.625 6.29076 20.625 6.125V4.25H24.375C24.8723 4.25 25.3492 4.44754 25.7008 4.79917C26.0525 5.1508 26.25 5.62772 26.25 6.125V10.5Z" fill="black"/>
</g>
<defs>
<clipPath id="clip0_27_303">
<rect width="30" height="30" fill="white" transform="translate(0 0.5)"/>
</clipPath>
</defs>
</svg>
